<?xml version="1.0" standalone="no"?><!DOCTYPE svg PUBLIC "-//W3C//DTD SVG 1.1//EN" "http://www.w3.org/Graphics/SVG/1.1/DTD/svg11.dtd"><svg t="1588961571693" class="icon" viewBox="0 0 1024 1024" version="1.1" xmlns="http://www.w3.org/2000/svg" p-id="31295" xmlns:xlink="http://www.w3.org/1999/xlink" width="200" height="200"><defs><style type="text/css"></style></defs><path d="M304.761905 384.048762l2.340571-3.657143c2.145524-3.267048 4.534857-6.485333 6.826667-9.752381 2.29181-3.218286 4.583619-6.534095 7.070476-9.752381 2.486857-3.169524 5.36381-6.241524 8.094476-9.313524 2.486857-2.876952 5.022476-5.851429 7.753143-8.582095 0.926476-0.877714 1.609143-1.950476 2.486857-2.82819 2.194286-2.194286 4.583619-4.096 6.826667-6.144l2.438095-2.194286 5.36381-4.778667c3.072-2.633143 6.144-5.022476 9.264762-7.411809 1.462857-1.121524 2.925714-2.29181 4.388571-3.31581 1.462857-1.121524 3.120762-2.145524 4.583619-3.315809a274.529524 274.529524 0 0 1 9.45981-6.339048l6.046476-3.705905 4.096-2.389333c3.218286-1.80419 6.38781-3.608381 9.606095-5.217524 2.243048-1.170286 4.681143-2.29181 6.92419-3.315809l4.778667-2.048c3.120762-1.365333 6.192762-2.730667 9.362286-3.998477 2.438095-0.926476 4.778667-1.80419 7.314286-2.633142 2.145524-0.78019 4.193524-1.365333 6.339047-2.145524a182.369524 182.369524 0 0 1 8.484572-2.633143c1.26781-0.341333 2.389333-0.78019 3.510857-1.121524 1.26781-0.341333 2.438095-0.487619 3.657143-0.828952 2.730667-0.682667 5.607619-1.219048 8.435809-1.804191 2.438095-0.585143 4.87619-1.024 7.314286-1.462857 2.633143-0.487619 5.12-1.072762 7.753143-1.414095 3.072-0.438857 6.144-0.682667 9.264762-0.975238 1.950476-0.24381 3.949714-0.487619 5.90019-0.585143 2.82819-0.24381 5.851429-0.585143 8.679619-0.682667 3.072-0.146286 6.144-0.146286 9.264762-0.146285h5.36381c3.023238 0 6.095238 0 9.167238 0.146285 2.876952 0.097524 5.851429 0.438857 8.679619 0.682667 1.950476 0.097524 3.998476 0.341333 5.948952 0.536381 3.072 0.341333 6.144 0.585143 9.118476 1.024 2.633143 0.341333 5.12 0.975238 7.753143 1.365333 2.486857 0.487619 4.87619 1.072762 7.314286 1.462857 2.730667 0.633905 5.558857 1.170286 8.289524 1.852953 1.26781 0.341333 2.438095 0.487619 3.657143 0.828952 1.170286 0.341333 2.438095 0.682667 3.559619 1.121524a34.816 34.816 0 0 0 3.267047 0.78019v-0.097523l427.056762 114.395428a505.709714 505.709714 0 0 0-135.070476-243.126857C696.417524-25.404952 424.277333-46.08 225.52381 88.112762l79.238095 295.984762z m198.704762 370.492952c-1.462857 0-2.876952-0.097524-4.242286-0.243809-3.998476-0.195048-7.850667-0.682667-11.849143-0.975238a134.680381 134.680381 0 0 1-11.849143-1.414096c-3.998476-0.536381-8.094476-1.462857-12.092952-2.291809-3.754667-0.78019-7.655619-1.462857-11.312762-2.389333-1.219048-0.341333-2.486857-0.438857-3.657143-0.780191-2.925714-0.78019-5.802667-1.950476-8.777143-2.82819-0.975238-0.341333-2.048-0.585143-3.072-0.975238l-6.826666-2.243048a317.44 317.44 0 0 1-11.068953-4.193524l-5.12-2.194286c-1.706667-0.78019-3.413333-1.462857-5.12-2.291809a424.618667 424.618667 0 0 1-10.24-5.022476l-6.192762-3.413334a255.122286 255.122286 0 0 1-13.555809-8.094476c-2.194286-1.365333-4.242286-2.925714-6.38781-4.388571-1.365333-1.072762-2.876952-2.096762-4.242285-3.120762-2.730667-2.048-5.461333-3.998476-8.094477-6.046476-2.048-1.609143-3.998476-3.31581-5.948952-4.876191-1.706667-1.511619-3.413333-2.974476-4.973714-4.486095l-6.534096-5.900191c-0.877714-0.975238-1.950476-1.609143-2.730666-2.535619-0.926476-0.926476-1.609143-1.80419-2.486857-2.730666-2.048-2.048-3.900952-4.193524-5.851429-6.290286a114.492952 114.492952 0 0 1-4.87619-5.558857 128.097524 128.097524 0 0 1-5.022477-6.046476c-1.950476-2.438095-3.657143-4.87619-5.607619-7.41181-1.121524-1.609143-2.389333-3.218286-3.413333-4.778667-1.706667-2.438095-3.413333-4.681143-4.87619-7.216761-1.706667-2.584381-3.218286-5.36381-4.827429-7.948191a61.732571 61.732571 0 0 1-2.584381-4.681143c-1.462857-2.730667-3.072-5.36381-4.583619-8.094476-1.365333-2.633143-2.486857-5.266286-3.754667-7.899429a116.540952 116.540952 0 0 0-2.486857-5.461333c-1.26781-2.82819-2.535619-5.558857-3.657143-8.435809-0.926476-2.389333-1.852952-4.87619-2.730666-7.41181l-2.438096-7.070476a112.64 112.64 0 0 1-2.486857-8.192c-0.341333-1.26781-0.78019-2.438095-1.121524-3.559619-0.341333-1.121524-0.585143-2.389333-0.828952-3.510857-0.195048-1.170286-0.682667-2.194286-0.877714-3.31581h-0.146286L160.329143 140.921905c-3.559619 3.31581-7.168 6.192762-10.630095 9.606095-199.533714 199.533714-199.533714 523.166476 0 722.846476 41.20381 41.155048 87.82019 73.289143 137.411047 97.52381l216.356572-216.356572z m517.022476-277.991619a509.025524 509.025524 0 0 1-148.041143 396.824381A510.927238 510.927238 0 0 1 364.739048 1001.569524l313.002666-312.661334-0.097524-0.097523c0.78019-0.682667 1.560381-1.609143 2.389334-2.389334l2.730666-2.486857c0.877714-0.828952 1.609143-1.852952 2.486858-2.779428 2.048-2.048 3.900952-4.096 5.851428-6.241524 1.706667-1.852952 3.413333-3.657143 4.973714-5.607619 1.706667-2.048 3.413333-3.998476 5.022477-6.046476 1.852952-2.389333 3.657143-4.87619 5.510095-7.41181 1.219048-1.609143 2.389333-3.169524 3.510857-4.778667 1.609143-2.438095 3.31581-4.778667 4.876191-7.168 1.755429-2.633143 3.218286-5.36381 4.827428-7.996952l2.730667-4.681143c1.609143-2.730667 3.169524-5.36381 4.534857-8.094476l3.657143-7.850667c0.926476-1.852952 1.706667-3.657143 2.535619-5.510095 1.219048-2.82819 2.486857-5.656381 3.657143-8.533333l2.584381-7.41181c0.975238-2.29181 1.609143-4.681143 2.438095-7.070476 0.877714-2.730667 1.80419-5.461333 2.584381-8.192 0.341333-1.170286 0.828952-2.29181 1.170286-3.559619 0.341333-1.26781 0.438857-2.389333 0.78019-3.657143 0.78019-2.82819 1.365333-5.705143 1.950476-8.533333l1.365334-6.631619c0.487619-2.584381 0.975238-5.12 1.365333-7.606857 0.585143-3.31581 0.926476-6.729143 1.267809-10.044953 0.195048-1.706667 0.438857-3.413333 0.536381-5.12 0.24381-2.633143 0.487619-5.168762 0.585143-7.801905 0.097524-3.608381 0.24381-7.265524 0.24381-10.922666v-4.778667c0-2.438095 0-4.778667-0.146286-7.168-0.195048-3.803429-0.438857-7.655619-0.78019-11.410286a92.696381 92.696381 0 0 0-0.585143-5.607619l-0.682667-5.558857c-0.536381-3.900952-1.121524-7.801905-1.80419-11.654095-0.487619-2.438095-1.024-4.681143-1.462858-7.070476l-0.828952-3.169524c-0.682667-3.120762-1.121524-6.046476-1.950476-9.020952l-1.121524-3.657143a178.468571 178.468571 0 0 0-3.559619-11.068953c-1.365333-3.900952-2.584381-7.850667-4.096-11.605333-1.365333-3.803429-3.169524-7.41181-4.778667-11.068952-1.706667-3.559619-3.169524-7.216762-5.022476-10.727619-0.585143-1.26781-1.26781-2.486857-1.950476-3.754667l295.497143 79.140571z m-359.472762-35.693714a8.289524 8.289524 0 0 0 0.975238 1.80419c0.438857 0.828952 0.78019 1.706667 1.121524 2.535619 1.219048 2.82819 2.389333 5.90019 3.510857 8.874667l1.365333 4.096 1.024 3.31581a134.875429 134.875429 0 0 1 3.657143 13.458285l0.682667 3.169524a125.805714 125.805714 0 0 1 2.291809 14.043429l0.195048 2.291809 0.341333 3.657143c0.24381 3.510857 0.487619 7.070476 0.487619 10.581333v5.266286c0 3.510857-0.24381 7.070476-0.487619 10.581334l-0.195047 2.730666-0.341334 3.31581c-0.487619 2.974476-0.828952 6.046476-1.365333 9.118476l-0.828952 3.998476a139.215238 139.215238 0 0 1-4.242286 16.774095l-1.219048 3.900953-1.462857 4.193524a180.614095 180.614095 0 0 1-3.315809 8.289523c-0.341333 1.072762-0.78019 1.950476-1.26781 2.974477l-1.365333 2.876952a137.411048 137.411048 0 0 1-6.046476 11.605333l-1.365334 2.438095c-1.80419 2.925714-3.657143 5.802667-5.558857 8.630858-0.731429 0.926476-1.26781 1.852952-1.950476 2.730666-0.585143 0.975238-1.26781 1.706667-1.852952 2.535619-1.706667 2.389333-3.510857 4.778667-5.461334 7.070477l-2.925714 3.413333c-0.828952 1.024-1.755429 1.950476-2.633143 2.925714-1.462857 1.657905-2.974476 3.218286-4.486095 4.729905-1.560381 1.560381-3.31581 3.169524-5.022476 4.778667-0.877714 0.926476-1.950476 1.80419-2.925715 2.730666l-3.120762 2.633143c-2.389333 2.048-4.778667 3.998476-7.314285 5.802667-0.78019 0.682667-1.657905 1.26781-2.584381 1.950476l-2.145524 1.462857c-2.876952 1.950476-5.851429 3.900952-8.923429 5.705143-0.78019 0.585143-1.706667 1.024-2.633142 1.609143l-1.804191 0.975238c-3.072 1.755429-6.290286 3.462095-9.459809 4.924952-1.170286 0.487619-2.194286 1.072762-3.31581 1.462857a111.37219 111.37219 0 0 1-10.727619 4.33981l-4.681143 1.609143-3.072 1.072762c-2.145524 0.682667-4.33981 1.365333-6.485333 1.950476l-7.070476 1.657905-3.218286 0.682666-4.388572 0.828953a138.288762 138.288762 0 0 1-15.213714 1.80419c-3.657143 0.341333-7.314286 0.585143-10.922666 0.585143h-4.778667a175.88419 175.88419 0 0 1-26.136381-2.438095c-1.365333-0.195048-2.82819-0.438857-4.33981-0.780191l-3.169523-0.682666c-2.438095-0.536381-4.681143-1.121524-7.070477-1.706667a140.336762 140.336762 0 0 1-6.534095-1.950476l-3.072-0.975238c-1.609143-0.487619-3.072-1.072762-4.681143-1.609143a133.607619 133.607619 0 0 1-8.533333-3.413333c-0.78019-0.341333-1.462857-0.585143-2.145524-0.975239-1.072762-0.487619-2.194286-0.975238-3.315809-1.560381a144.335238 144.335238 0 0 1-9.362286-4.778666l-1.804191-1.024a193.828571 193.828571 0 0 1-11.654095-7.314286l-2.048-1.462857-2.730666-2.048c-2.535619-1.852952-4.87619-3.754667-7.314286-5.705143-0.975238-0.926476-2.048-1.706667-3.072-2.633143l-3.072-2.730666a185.392762 185.392762 0 0 1-4.876191-4.681143c-1.511619-1.609143-3.023238-3.072-4.486095-4.681143a70.168381 70.168381 0 0 1-2.730667-2.925714c-1.024-1.170286-2.048-2.29181-2.925714-3.413334-1.852952-2.340571-3.803429-4.583619-5.510095-6.972952-0.682667-0.975238-1.365333-1.755429-1.950476-2.633143-0.585143-0.926476-1.26781-1.706667-1.804191-2.633143-1.950476-2.876952-3.900952-5.705143-5.607619-8.679619-0.585143-0.78019-0.975238-1.609143-1.462857-2.389333l-1.365333-2.389334a228.205714 228.205714 0 0 1-4.681143-9.118476l-1.365333-3.072c-0.487619-0.926476-0.828952-1.950476-1.26781-2.876952-1.121524-2.730667-2.29181-5.461333-3.31581-8.192l-1.462857-4.33981a125.805714 125.805714 0 0 1-3.072-9.898666c-0.585143-2.29181-1.170286-4.486095-1.609143-6.729143-0.24381-1.26781-0.585143-2.633143-0.78019-3.900953a128.877714 128.877714 0 0 1-2.145524-13.214476l-0.390095-3.218285c-0.097524-0.78019-0.097524-1.706667-0.24381-2.584381a329.679238 329.679238 0 0 1-0.438857-10.630096v-5.12c0-3.559619 0.24381-7.070476 0.487619-10.630095l0.292572-3.608381c0-0.828952 0.146286-1.462857 0.243809-2.291809a128.877714 128.877714 0 0 1 2.29181-14.140953l0.682666-3.072c0.487619-2.194286 0.975238-4.486095 1.609143-6.631619l2.048-6.972952 0.975238-3.169524 1.511619-4.242286c1.024-2.925714 2.29181-5.90019 3.55962-8.874666l0.975238-2.438096 1.267809-2.681904c1.609143-3.31581 3.218286-6.534095 5.022476-9.703619 0.341333-0.682667 0.682667-1.365333 1.170286-2.048 0.487619-0.682667 0.78019-1.365333 1.219048-2.048 1.950476-3.218286 3.900952-6.290286 5.948952-9.264762l1.706667-2.389334 1.609143-2.048c1.80419-2.633143 3.900952-5.12 5.90019-7.655619l2.876952-3.267047a108.982857 108.982857 0 0 1 7.314286-7.753143c1.560381-1.609143 3.169524-3.218286 4.876191-4.681143l2.438095-2.194286c1.219048-0.975238 2.438095-2.145524 3.705905-3.169524 2.438095-1.950476 4.827429-3.900952 7.314285-5.705142l1.950477-1.365334 2.925714-2.048c2.974476-1.950476 5.851429-3.900952 8.923428-5.705143l1.804191-1.024 2.779428-1.609142a144.335238 144.335238 0 0 1 9.313524-4.778667c0.828952-0.487619 1.609143-0.828952 2.438095-1.170286l3.072-1.365333a133.607619 133.607619 0 0 1 8.533334-3.413334l3.754666-1.365333c1.365333-0.487619 2.633143-0.78019 3.998477-1.267809 2.29181-0.682667 4.437333-1.365333 6.631619-1.950477a163.352381 163.352381 0 0 1 6.241524-1.462857c1.365333-0.195048 2.633143-0.536381 3.998476-0.78019 1.462857-0.24381 2.925714-0.585143 4.437333-0.780191 2.876952-0.487619 5.851429-0.975238 8.777143-1.267809l3.120762-0.341334 3.169524-0.341333c3.413333-0.24381 6.826667-0.341333 10.24-0.487619h5.607619a154.428952 154.428952 0 0 1 13.555809 0.828952l2.974476 0.341334c2.974476 0.341333 5.851429 0.78019 8.777143 1.267809 1.462857 0.341333 3.072 0.536381 4.583619 0.877715a100.937143 100.937143 0 0 1 16.774096 4.242285c1.219048 0.487619 2.584381 0.78019 3.85219 1.26781l3.754667 1.365333c2.974476 0.975238 5.851429 2.145524 8.679619 3.413334l3.072 1.365333c0.682667 0.341333 1.462857 0.682667 2.291809 0.975238a246.442667 246.442667 0 0 1 12.190476 6.436571l1.804191 0.975238c3.120762 1.755429 6.046476 3.705905 9.020952 5.753905l2.974476 2.048 1.804191 1.365334c2.535619 1.950476 4.924952 3.900952 7.314286 5.851428 1.26781 0.975238 2.535619 2.145524 3.754666 3.169524l2.438096 2.145524 4.973714 4.778666c1.706667 1.706667 3.413333 3.413333 5.022476 5.266286l2.194286 2.389333c0.975238 1.121524 2.048 2.29181 2.925714 3.413334 2.096762 2.438095 3.998476 4.87619 5.948952 7.509333l1.462858 2.096762c0.682667 0.78019 1.26781 1.706667 1.852952 2.486857 2.048 3.072 4.096 6.144 5.90019 9.264762l1.170286 2.048c0.487619 0.682667 0.78019 1.462857 1.26781 2.145524 1.80419 3.169524 3.413333 6.339048 4.973714 9.703619z" fill="#58E9FF" p-id="31296" data-spm-anchor-id="a313x.7781069.0.i15" class=""></path></svg>